<svg id="_x33_0" enable-background="new 0 0 64 64" height="512" viewBox="0 0 64 64" width="512" xmlns="http://www.w3.org/2000/svg"><g><g><g><path d="m49 62h-6v-9h6z" fill="#f0bc5e"/></g></g><g><g><path d="m57 62h-6v-9h6z" fill="#f0bc5e"/></g></g><g><g><path d="m49 50h-6v-9h6z" fill="#f0bc5e"/></g></g><g><g><path d="m57 50h-6v-9h6z" fill="#f0bc5e"/></g></g><path d="m61 37v-4h-4v-20h-2.382l-3-6h-2l-2-4h-8.618v4h-4v-6h-15.468l-10 12h-2.532v20h-4v8h-2v22h62v-26zm-24.557 8 2.25-6h22.307v10h-20v-4zm14.557-12v-14h4v14zm-30-18v2h-6v-2zm2-4v2h-4v-2zm26 4v2h-6v-2zm-8 2h-4v-2h4zm-6 0h-6v-2h6zm-8-2v2h-4v-2zm2-2h-4v-2h4zm-8 6v14h-6v-14zm2 0h4v14h-4zm6 0h6v14h-6zm8 0h4v14h-4zm6 0h6v14h-6zm12-2h-4v-2h4zm-2.618-4h-21.382v-4h19.382zm-11.382-8h5.382l1 2h-6.382zm-20.532-2h12.532v4h-4v2h-13.532zm-6.666 8h3.198v2h-4.865zm-.802 4v2h-4v-2zm-4 4h4v14h-4zm-4 16h54v2h-21.693l-3 8h-9.807l-3-4h-16.5zm15.5 8 3 4h15.5v4h-20v-6h-6v6h-2v-6h-6v6h-2v-8zm-3.5 8h-2v-4h2zm-8 0h-2v-4h2zm0 10h-2v-4h2zm8 0h-2v-4h2zm8 0h-2v-4h2zm8 0h-2v-4h2zm2 0v-6h-6v6h-2v-6h-6v6h-2v-6h-6v6h-2v-6h-6v6h-2v-8h36v8zm6 0v-10h20v10z"/></g></svg>